<svg width="252" height="24" viewBox="0 0 252 24" fill="none" xmlns="http://www.w3.org/2000/svg">
<path d="M10.22 16.02C8.87333 16.02 7.88 15.64 7.24 14.88C6.61333 14.12 6.3 13.1133 6.3 11.86C6.3 10.5933 6.64667 9.57333 7.34 8.8C8.04667 8.02667 9.02667 7.64 10.28 7.64C10.6933 7.64 11.1067 7.68667 11.52 7.78C11.9467 7.87333 12.3533 8.01333 12.74 8.2L12.14 9.6C11.86 9.46667 11.56 9.36 11.24 9.28C10.9333 9.18667 10.6067 9.14 10.26 9.14C9.62 9.14 9.11333 9.38 8.74 9.86C8.36667 10.34 8.18 11.0133 8.18 11.88C8.18 13.6533 8.91333 14.54 10.38 14.54C10.74 14.54 11.0867 14.5 11.42 14.42C11.7533 14.34 12.08 14.24 12.4 14.12V15.62C12.0667 15.7533 11.72 15.8533 11.36 15.92C11.0133 15.9867 10.6333 16.02 10.22 16.02ZM10 20.52C8.8 20.52 7.67333 20.2933 6.62 19.84C5.58 19.4 4.66 18.7867 3.86 18C3.07333 17.2 2.45333 16.28 2 15.24C1.56 14.1867 1.34 13.06 1.34 11.86C1.34 10.66 1.56 9.54 2 8.5C2.45333 7.44667 3.07333 6.52667 3.86 5.74C4.66 4.94 5.58 4.32 6.62 3.88C7.67333 3.42667 8.8 3.2 10 3.2C11.2 3.2 12.32 3.42667 13.36 3.88C14.4133 4.32 15.3333 4.94 16.12 5.74C16.92 6.52667 17.54 7.44667 17.98 8.5C18.4333 9.54 18.66 10.66 18.66 11.86C18.66 13.06 18.4333 14.1867 17.98 15.24C17.54 16.28 16.92 17.2 16.12 18C15.3333 18.7867 14.4133 19.4 13.36 19.84C12.32 20.2933 11.2 20.52 10 20.52ZM10 18.74C10.96 18.74 11.8533 18.5667 12.68 18.22C13.5067 17.86 14.2333 17.3667 14.86 16.74C15.5 16.1 15.9933 15.3667 16.34 14.54C16.7 13.7 16.88 12.8067 16.88 11.86C16.88 10.9 16.7 10.0067 16.34 9.18C15.9933 8.35333 15.5 7.62667 14.86 7C14.2333 6.36 13.5 5.86667 12.66 5.52C11.8333 5.16 10.9467 4.98 10 4.98C9.04 4.98 8.14667 5.16 7.32 5.52C6.49333 5.86667 5.76 6.36 5.12 7C4.49333 7.62667 4 8.36 3.64 9.2C3.29333 10.0267 3.12 10.9133 3.12 11.86C3.12 12.82 3.29333 13.7133 3.64 14.54C4 15.3667 4.49333 16.1 5.12 16.74C5.76 17.3667 6.49333 17.86 7.32 18.22C8.16 18.5667 9.05333 18.74 10 18.74ZM25.4841 19L31.7241 5H34.9241L41.1841 19H37.7841L32.6641 6.64H33.9441L28.8041 19H25.4841ZM28.6041 16L29.4641 13.54H36.6641L37.5441 16H28.6041ZM42.4166 19V4.16H45.5366V19H42.4166ZM53.7722 19.16C52.5455 19.16 51.4655 18.92 50.5322 18.44C49.6122 17.96 48.8989 17.3067 48.3922 16.48C47.8855 15.64 47.6322 14.6867 47.6322 13.62C47.6322 12.54 47.8789 11.5867 48.3722 10.76C48.8789 9.92 49.5655 9.26667 50.4322 8.8C51.2989 8.32 52.2789 8.08 53.3722 8.08C54.4255 8.08 55.3722 8.30667 56.2122 8.76C57.0655 9.2 57.7389 9.84 58.2322 10.68C58.7255 11.5067 58.9722 12.5 58.9722 13.66C58.9722 13.78 58.9655 13.92 58.9522 14.08C58.9389 14.2267 58.9255 14.3667 58.9122 14.5H50.1722V12.68H57.2722L56.0722 13.22C56.0722 12.66 55.9589 12.1733 55.7322 11.76C55.5055 11.3467 55.1922 11.0267 54.7922 10.8C54.3922 10.56 53.9255 10.44 53.3922 10.44C52.8589 10.44 52.3855 10.56 51.9722 10.8C51.5722 11.0267 51.2589 11.3533 51.0322 11.78C50.8055 12.1933 50.6922 12.6867 50.6922 13.26V13.74C50.6922 14.3267 50.8189 14.8467 51.0722 15.3C51.3389 15.74 51.7055 16.08 52.1722 16.32C52.6522 16.5467 53.2122 16.66 53.8522 16.66C54.4255 16.66 54.9255 16.5733 55.3522 16.4C55.7922 16.2267 56.1922 15.9667 56.5522 15.62L58.2122 17.42C57.7189 17.98 57.0989 18.4133 56.3522 18.72C55.6055 19.0133 54.7455 19.16 53.7722 19.16ZM67.5894 8.08C68.4427 8.08 69.2027 8.25333 69.8694 8.6C70.5494 8.93333 71.0827 9.45333 71.4694 10.16C71.856 10.8533 72.0494 11.7467 72.0494 12.84V19H68.9294V13.32C68.9294 12.4533 68.736 11.8133 68.3494 11.4C67.976 10.9867 67.4427 10.78 66.7494 10.78C66.256 10.78 65.8094 10.8867 65.4094 11.1C65.0227 11.3 64.716 11.6133 64.4894 12.04C64.276 12.4667 64.1694 13.0133 64.1694 13.68V19H61.0494V8.24H64.0294V11.22L63.4694 10.32C63.856 9.6 64.4094 9.04667 65.1294 8.66C65.8494 8.27333 66.6694 8.08 67.5894 8.08ZM81.4775 19V16.9L81.2775 16.44V12.68C81.2775 12.0133 81.0708 11.4933 80.6575 11.12C80.2575 10.7467 79.6375 10.56 78.7975 10.56C78.2242 10.56 77.6575 10.6533 77.0975 10.84C76.5508 11.0133 76.0842 11.2533 75.6975 11.56L74.5775 9.38C75.1642 8.96667 75.8708 8.64667 76.6975 8.42C77.5242 8.19333 78.3642 8.08 79.2175 8.08C80.8575 8.08 82.1308 8.46667 83.0375 9.24C83.9442 10.0133 84.3975 11.22 84.3975 12.86V19H81.4775ZM78.1975 19.16C77.3575 19.16 76.6375 19.02 76.0375 18.74C75.4375 18.4467 74.9775 18.0533 74.6575 17.56C74.3375 17.0667 74.1775 16.5133 74.1775 15.9C74.1775 15.26 74.3308 14.7 74.6375 14.22C74.9575 13.74 75.4575 13.3667 76.1375 13.1C76.8175 12.82 77.7042 12.68 78.7975 12.68H81.6575V14.5H79.1375C78.4042 14.5 77.8975 14.62 77.6175 14.86C77.3508 15.1 77.2175 15.4 77.2175 15.76C77.2175 16.16 77.3708 16.48 77.6775 16.72C77.9975 16.9467 78.4308 17.06 78.9775 17.06C79.4975 17.06 79.9642 16.94 80.3775 16.7C80.7908 16.4467 81.0908 16.08 81.2775 15.6L81.7575 17.04C81.5308 17.7333 81.1175 18.26 80.5175 18.62C79.9175 18.98 79.1442 19.16 78.1975 19.16ZM93.1053 19V5H99.1653C100.419 5 101.499 5.20667 102.405 5.62C103.312 6.02 104.012 6.6 104.505 7.36C104.999 8.12 105.245 9.02667 105.245 10.08C105.245 11.12 104.999 12.02 104.505 12.78C104.012 13.54 103.312 14.1267 102.405 14.54C101.499 14.94 100.419 15.14 99.1653 15.14H94.9053L96.3453 13.68V19H93.1053ZM96.3453 14.04L94.9053 12.5H98.9853C99.9853 12.5 100.732 12.2867 101.225 11.86C101.719 11.4333 101.965 10.84 101.965 10.08C101.965 9.30667 101.719 8.70667 101.225 8.28C100.732 7.85333 99.9853 7.64 98.9853 7.64H94.9053L96.3453 6.1V14.04ZM112.439 19.16C111.292 19.16 110.272 18.92 109.379 18.44C108.499 17.96 107.799 17.3067 107.279 16.48C106.772 15.64 106.519 14.6867 106.519 13.62C106.519 12.54 106.772 11.5867 107.279 10.76C107.799 9.92 108.499 9.26667 109.379 8.8C110.272 8.32 111.292 8.08 112.439 8.08C113.572 8.08 114.586 8.32 115.479 8.8C116.372 9.26667 117.072 9.91333 117.579 10.74C118.086 11.5667 118.339 12.5267 118.339 13.62C118.339 14.6867 118.086 15.64 117.579 16.48C117.072 17.3067 116.372 17.96 115.479 18.44C114.586 18.92 113.572 19.16 112.439 19.16ZM112.439 16.6C112.959 16.6 113.426 16.48 113.839 16.24C114.252 16 114.579 15.66 114.819 15.22C115.059 14.7667 115.179 14.2333 115.179 13.62C115.179 12.9933 115.059 12.46 114.819 12.02C114.579 11.58 114.252 11.24 113.839 11C113.426 10.76 112.959 10.64 112.439 10.64C111.919 10.64 111.452 10.76 111.039 11C110.626 11.24 110.292 11.58 110.039 12.02C109.799 12.46 109.679 12.9933 109.679 13.62C109.679 14.2333 109.799 14.7667 110.039 15.22C110.292 15.66 110.626 16 111.039 16.24C111.452 16.48 111.919 16.6 112.439 16.6ZM125.044 19.16C124.031 19.16 123.118 18.9333 122.304 18.48C121.491 18.0133 120.844 17.3667 120.364 16.54C119.898 15.7133 119.664 14.74 119.664 13.62C119.664 12.4867 119.898 11.5067 120.364 10.68C120.844 9.85333 121.491 9.21333 122.304 8.76C123.118 8.30667 124.031 8.08 125.044 8.08C125.951 8.08 126.744 8.28 127.424 8.68C128.104 9.08 128.631 9.68667 129.004 10.5C129.378 11.3133 129.564 12.3533 129.564 13.62C129.564 14.8733 129.384 15.9133 129.024 16.74C128.664 17.5533 128.144 18.16 127.464 18.56C126.798 18.96 125.991 19.16 125.044 19.16ZM125.584 16.6C126.091 16.6 126.551 16.48 126.964 16.24C127.378 16 127.704 15.66 127.944 15.22C128.198 14.7667 128.324 14.2333 128.324 13.62C128.324 12.9933 128.198 12.46 127.944 12.02C127.704 11.58 127.378 11.24 126.964 11C126.551 10.76 126.091 10.64 125.584 10.64C125.064 10.64 124.598 10.76 124.184 11C123.771 11.24 123.438 11.58 123.184 12.02C122.944 12.46 122.824 12.9933 122.824 13.62C122.824 14.2333 122.944 14.7667 123.184 15.22C123.438 15.66 123.771 16 124.184 16.24C124.598 16.48 125.064 16.6 125.584 16.6ZM128.404 19V16.8L128.464 13.6L128.264 10.42V4.16H131.384V19H128.404ZM140.872 19V16.9L140.672 16.44V12.68C140.672 12.0133 140.465 11.4933 140.052 11.12C139.652 10.7467 139.032 10.56 138.192 10.56C137.619 10.56 137.052 10.6533 136.492 10.84C135.945 11.0133 135.479 11.2533 135.092 11.56L133.972 9.38C134.559 8.96667 135.265 8.64667 136.092 8.42C136.919 8.19333 137.759 8.08 138.612 8.08C140.252 8.08 141.525 8.46667 142.432 9.24C143.339 10.0133 143.792 11.22 143.792 12.86V19H140.872ZM137.592 19.16C136.752 19.16 136.032 19.02 135.432 18.74C134.832 18.4467 134.372 18.0533 134.052 17.56C133.732 17.0667 133.572 16.5133 133.572 15.9C133.572 15.26 133.725 14.7 134.032 14.22C134.352 13.74 134.852 13.3667 135.532 13.1C136.212 12.82 137.099 12.68 138.192 12.68H141.052V14.5H138.532C137.799 14.5 137.292 14.62 137.012 14.86C136.745 15.1 136.612 15.4 136.612 15.76C136.612 16.16 136.765 16.48 137.072 16.72C137.392 16.9467 137.825 17.06 138.372 17.06C138.892 17.06 139.359 16.94 139.772 16.7C140.185 16.4467 140.485 16.08 140.672 15.6L141.152 17.04C140.925 17.7333 140.512 18.26 139.912 18.62C139.312 18.98 138.539 19.16 137.592 19.16ZM153.156 8.08C154.009 8.08 154.769 8.25333 155.436 8.6C156.116 8.93333 156.649 9.45333 157.036 10.16C157.422 10.8533 157.616 11.7467 157.616 12.84V19H154.496V13.32C154.496 12.4533 154.302 11.8133 153.916 11.4C153.542 10.9867 153.009 10.78 152.316 10.78C151.822 10.78 151.376 10.8867 150.976 11.1C150.589 11.3 150.282 11.6133 150.056 12.04C149.842 12.4667 149.736 13.0133 149.736 13.68V19H146.616V8.24H149.596V11.22L149.036 10.32C149.422 9.6 149.976 9.04667 150.696 8.66C151.416 8.27333 152.236 8.08 153.156 8.08ZM165.862 19.16C164.635 19.16 163.555 18.92 162.622 18.44C161.702 17.96 160.989 17.3067 160.482 16.48C159.975 15.64 159.722 14.6867 159.722 13.62C159.722 12.54 159.969 11.5867 160.462 10.76C160.969 9.92 161.655 9.26667 162.522 8.8C163.389 8.32 164.369 8.08 165.462 8.08C166.515 8.08 167.462 8.30667 168.302 8.76C169.155 9.2 169.829 9.84 170.322 10.68C170.815 11.5067 171.062 12.5 171.062 13.66C171.062 13.78 171.055 13.92 171.042 14.08C171.029 14.2267 171.015 14.3667 171.002 14.5H162.262V12.68H169.362L168.162 13.22C168.162 12.66 168.049 12.1733 167.822 11.76C167.595 11.3467 167.282 11.0267 166.882 10.8C166.482 10.56 166.015 10.44 165.482 10.44C164.949 10.44 164.475 10.56 164.062 10.8C163.662 11.0267 163.349 11.3533 163.122 11.78C162.895 12.1933 162.782 12.6867 162.782 13.26V13.74C162.782 14.3267 162.909 14.8467 163.162 15.3C163.429 15.74 163.795 16.08 164.262 16.32C164.742 16.5467 165.302 16.66 165.942 16.66C166.515 16.66 167.015 16.5733 167.442 16.4C167.882 16.2267 168.282 15.9667 168.642 15.62L170.302 17.42C169.809 17.98 169.189 18.4133 168.442 18.72C167.695 19.0133 166.835 19.16 165.862 19.16ZM175.864 19L171.344 8.24H174.564L178.324 17.5H176.724L180.624 8.24H183.624L179.084 19H175.864ZM191.145 19V16.9L190.945 16.44V12.68C190.945 12.0133 190.739 11.4933 190.325 11.12C189.925 10.7467 189.305 10.56 188.465 10.56C187.892 10.56 187.325 10.6533 186.765 10.84C186.219 11.0133 185.752 11.2533 185.365 11.56L184.245 9.38C184.832 8.96667 185.539 8.64667 186.365 8.42C187.192 8.19333 188.032 8.08 188.885 8.08C190.525 8.08 191.799 8.46667 192.705 9.24C193.612 10.0133 194.065 11.22 194.065 12.86V19H191.145ZM187.865 19.16C187.025 19.16 186.305 19.02 185.705 18.74C185.105 18.4467 184.645 18.0533 184.325 17.56C184.005 17.0667 183.845 16.5133 183.845 15.9C183.845 15.26 183.999 14.7 184.305 14.22C184.625 13.74 185.125 13.3667 185.805 13.1C186.485 12.82 187.372 12.68 188.465 12.68H191.325V14.5H188.805C188.072 14.5 187.565 14.62 187.285 14.86C187.019 15.1 186.885 15.4 186.885 15.76C186.885 16.16 187.039 16.48 187.345 16.72C187.665 16.9467 188.099 17.06 188.645 17.06C189.165 17.06 189.632 16.94 190.045 16.7C190.459 16.4467 190.759 16.08 190.945 15.6L191.425 17.04C191.199 17.7333 190.785 18.26 190.185 18.62C189.585 18.98 188.812 19.16 187.865 19.16ZM201.773 19V16.9L207.173 11.8C207.6 11.4133 207.913 11.0667 208.113 10.76C208.313 10.4533 208.447 10.1733 208.513 9.92C208.593 9.66667 208.633 9.43333 208.633 9.22C208.633 8.66 208.44 8.23333 208.053 7.94C207.68 7.63333 207.127 7.48 206.393 7.48C205.807 7.48 205.26 7.59333 204.753 7.82C204.26 8.04667 203.84 8.4 203.493 8.88L201.133 7.36C201.667 6.56 202.413 5.92667 203.373 5.46C204.333 4.99333 205.44 4.76 206.693 4.76C207.733 4.76 208.64 4.93333 209.413 5.28C210.2 5.61333 210.807 6.08667 211.233 6.7C211.673 7.31333 211.893 8.04667 211.893 8.9C211.893 9.35333 211.833 9.80667 211.713 10.26C211.607 10.7 211.38 11.1667 211.033 11.66C210.7 12.1533 210.207 12.7067 209.553 13.32L205.073 17.54L204.453 16.36H212.353V19H201.773ZM219.69 19.24C218.543 19.24 217.517 18.96 216.61 18.4C215.703 17.8267 214.99 17 214.47 15.92C213.95 14.84 213.69 13.5333 213.69 12C213.69 10.4667 213.95 9.16 214.47 8.08C214.99 7 215.703 6.18 216.61 5.62C217.517 5.04667 218.543 4.76 219.69 4.76C220.85 4.76 221.877 5.04667 222.77 5.62C223.677 6.18 224.39 7 224.91 8.08C225.43 9.16 225.69 10.4667 225.69 12C225.69 13.5333 225.43 14.84 224.91 15.92C224.39 17 223.677 17.8267 222.77 18.4C221.877 18.96 220.85 19.24 219.69 19.24ZM219.69 16.5C220.237 16.5 220.71 16.3467 221.11 16.04C221.523 15.7333 221.843 15.2467 222.07 14.58C222.31 13.9133 222.43 13.0533 222.43 12C222.43 10.9467 222.31 10.0867 222.07 9.42C221.843 8.75333 221.523 8.26667 221.11 7.96C220.71 7.65333 220.237 7.5 219.69 7.5C219.157 7.5 218.683 7.65333 218.27 7.96C217.87 8.26667 217.55 8.75333 217.31 9.42C217.083 10.0867 216.97 10.9467 216.97 12C216.97 13.0533 217.083 13.9133 217.31 14.58C217.55 15.2467 217.87 15.7333 218.27 16.04C218.683 16.3467 219.157 16.5 219.69 16.5ZM227.066 19V16.9L232.466 11.8C232.893 11.4133 233.206 11.0667 233.406 10.76C233.606 10.4533 233.74 10.1733 233.806 9.92C233.886 9.66667 233.926 9.43333 233.926 9.22C233.926 8.66 233.733 8.23333 233.346 7.94C232.973 7.63333 232.42 7.48 231.686 7.48C231.1 7.48 230.553 7.59333 230.046 7.82C229.553 8.04667 229.133 8.4 228.786 8.88L226.426 7.36C226.96 6.56 227.706 5.92667 228.666 5.46C229.626 4.99333 230.733 4.76 231.986 4.76C233.026 4.76 233.933 4.93333 234.706 5.28C235.493 5.61333 236.1 6.08667 236.526 6.7C236.966 7.31333 237.186 8.04667 237.186 8.9C237.186 9.35333 237.126 9.80667 237.006 10.26C236.9 10.7 236.673 11.1667 236.326 11.66C235.993 12.1533 235.5 12.7067 234.846 13.32L230.366 17.54L229.746 16.36H237.646V19H227.066ZM238.608 16.06V13.88L245.208 5H248.608L242.148 13.88L240.568 13.42H251.588V16.06H238.608ZM246.148 19V16.06L246.248 13.42V10.8H249.308V19H246.148Z" fill="black"/>
</svg>
