<svg width="302" height="23" viewBox="0 0 302 23" fill="#f200ae" xmlns="http://www.w3.org/2000/svg">
<path d="M0.773945 22L10.1339 0.999999H14.9339L24.3239 22H19.2239L11.5439 3.46H13.4639L5.75395 22H0.773945ZM5.45395 17.5L6.74395 13.81H17.5439L18.8639 17.5H5.45395ZM26.5027 22V0.999999H31.3627V18.04H41.8927V22H26.5027ZM49.0782 9.46H59.1882V13.24H49.0782V9.46ZM49.4382 18.1H60.8682V22H44.6082V0.999999H60.4782V4.9H49.4382V18.1ZM64.7351 22V0.999999H68.7551L81.1451 16.12H79.1951V0.999999H83.9951V22H80.0051L67.5851 6.88H69.5351V22H64.7351ZM86.2036 22L95.5636 0.999999H100.364L109.754 22H104.654L96.9736 3.46H98.8936L91.1836 22H86.2036ZM90.8836 17.5L92.1736 13.81H102.974L104.294 17.5H90.8836ZM120.428 22V0.999999H129.518C131.398 0.999999 133.018 1.31 134.378 1.93C135.738 2.53 136.788 3.4 137.528 4.54C138.268 5.68 138.638 7.04 138.638 8.62C138.638 10.18 138.268 11.53 137.528 12.67C136.788 13.81 135.738 14.69 134.378 15.31C133.018 15.91 131.398 16.21 129.518 16.21H123.128L125.288 14.02V22H120.428ZM125.288 14.56L123.128 12.25H129.248C130.748 12.25 131.868 11.93 132.608 11.29C133.348 10.65 133.718 9.76 133.718 8.62C133.718 7.46 133.348 6.56 132.608 5.92C131.868 5.28 130.748 4.96 129.248 4.96H123.128L125.288 2.65V14.56ZM152.601 22.36C150.941 22.36 149.401 22.09 147.981 21.55C146.581 21.01 145.361 20.25 144.321 19.27C143.301 18.29 142.501 17.14 141.921 15.82C141.361 14.5 141.081 13.06 141.081 11.5C141.081 9.94 141.361 8.5 141.921 7.18C142.501 5.86 143.311 4.71 144.351 3.73C145.391 2.75 146.611 1.99 148.011 1.45C149.411 0.909999 150.931 0.64 152.571 0.64C154.231 0.64 155.751 0.909999 157.131 1.45C158.531 1.99 159.741 2.75 160.761 3.73C161.801 4.71 162.611 5.86 163.191 7.18C163.771 8.48 164.061 9.92 164.061 11.5C164.061 13.06 163.771 14.51 163.191 15.85C162.611 17.17 161.801 18.32 160.761 19.3C159.741 20.26 158.531 21.01 157.131 21.55C155.751 22.09 154.241 22.36 152.601 22.36ZM152.571 18.22C153.511 18.22 154.371 18.06 155.151 17.74C155.951 17.42 156.651 16.96 157.251 16.36C157.851 15.76 158.311 15.05 158.631 14.23C158.971 13.41 159.141 12.5 159.141 11.5C159.141 10.5 158.971 9.59 158.631 8.77C158.311 7.95 157.851 7.24 157.251 6.64C156.671 6.04 155.981 5.58 155.181 5.26C154.381 4.94 153.511 4.78 152.571 4.78C151.631 4.78 150.761 4.94 149.961 5.26C149.181 5.58 148.491 6.04 147.891 6.64C147.291 7.24 146.821 7.95 146.481 8.77C146.161 9.59 146.001 10.5 146.001 11.5C146.001 12.48 146.161 13.39 146.481 14.23C146.821 15.05 147.281 15.76 147.861 16.36C148.461 16.96 149.161 17.42 149.961 17.74C150.761 18.06 151.631 18.22 152.571 18.22ZM167.714 22V0.999999H177.254C179.534 0.999999 181.544 1.44 183.284 2.32C185.024 3.18 186.384 4.39 187.364 5.95C188.344 7.51 188.834 9.36 188.834 11.5C188.834 13.62 188.344 15.47 187.364 17.05C186.384 18.61 185.024 19.83 183.284 20.71C181.544 21.57 179.534 22 177.254 22H167.714ZM172.574 18.01H177.014C178.414 18.01 179.624 17.75 180.644 17.23C181.684 16.69 182.484 15.93 183.044 14.95C183.624 13.97 183.914 12.82 183.914 11.5C183.914 10.16 183.624 9.01 183.044 8.05C182.484 7.07 181.684 6.32 180.644 5.8C179.624 5.26 178.414 4.99 177.014 4.99H172.574V18.01ZM189.446 22L198.806 0.999999H203.606L212.996 22H207.896L200.216 3.46H202.136L194.426 22H189.446ZM194.126 17.5L195.416 13.81H206.216L207.536 17.5H194.126ZM215.175 22V0.999999H219.195L231.585 16.12H229.635V0.999999H234.435V22H230.445L218.025 6.88H219.975V22H215.175ZM243.873 9.46H253.983V13.24H243.873V9.46ZM244.233 18.1H255.663V22H239.403V0.999999H255.273V4.9H244.233V18.1ZM265.537 22L256.477 0.999999H261.727L269.647 19.6H266.557L274.597 0.999999H279.427L270.337 22H265.537ZM277.717 22L287.077 0.999999H291.877L301.267 22H296.167L288.487 3.46H290.407L282.697 22H277.717ZM282.397 17.5L283.687 13.81H294.487L295.807 17.5H282.397Z" fill="#f200ae"/>
</svg>
