<svg width="246" height="16" viewBox="0 0 246 16" fill="none" xmlns="http://www.w3.org/2000/svg">
<path d="M7.94891 15.06C6.94891 15.06 6.02224 14.88 5.16891 14.52C4.31557 14.16 3.56891 13.66 2.92891 13.02C2.28891 12.3667 1.78891 11.6133 1.42891 10.76C1.08224 9.90667 0.908906 8.98667 0.908906 8C0.908906 7.01333 1.08891 6.09333 1.44891 5.24C1.80891 4.38667 2.30891 3.64 2.94891 3C3.58891 2.34667 4.33557 1.84 5.18891 1.48C6.05557 1.12 6.98891 0.94 7.98891 0.94C8.98891 0.94 9.91557 1.12 10.7689 1.48C11.6356 1.82667 12.3822 2.32 13.0089 2.96C13.6489 3.6 14.1422 4.34667 14.4889 5.2C14.8489 6.04 15.0289 6.96 15.0289 7.96C15.0289 8.96 14.8489 9.89333 14.4889 10.76C14.1289 11.6133 13.6222 12.3667 12.9689 13.02C12.3289 13.66 11.5822 14.16 10.7289 14.52C9.87557 14.88 8.94891 15.06 7.94891 15.06ZM7.94891 13.76C8.76224 13.76 9.51557 13.6133 10.2089 13.32C10.9022 13.0133 11.5089 12.6 12.0289 12.08C12.5489 11.56 12.9489 10.9467 13.2289 10.24C13.5222 9.53333 13.6689 8.77333 13.6689 7.96C13.6689 7.14667 13.5222 6.39333 13.2289 5.7C12.9489 4.99333 12.5556 4.38667 12.0489 3.88C11.5556 3.36 10.9622 2.96 10.2689 2.68C9.57557 2.38667 8.81557 2.24 7.98891 2.24C7.17557 2.24 6.41557 2.38667 5.70891 2.68C5.01557 2.97333 4.40891 3.38667 3.88891 3.92C3.38224 4.44 2.98891 5.04667 2.70891 5.74C2.42891 6.43333 2.28891 7.18667 2.28891 8C2.28891 8.81333 2.42891 9.57333 2.70891 10.28C2.98891 10.9733 3.38224 11.58 3.88891 12.1C4.39557 12.62 4.99557 13.0267 5.68891 13.32C6.38224 13.6133 7.13557 13.76 7.94891 13.76ZM8.20891 12.04C7.38224 12.04 6.64891 11.8733 6.00891 11.54C5.36891 11.1933 4.86224 10.7133 4.48891 10.1C4.12891 9.48667 3.94891 8.78667 3.94891 8C3.94891 7.21333 4.12891 6.51333 4.48891 5.9C4.86224 5.28667 5.36891 4.81333 6.00891 4.48C6.64891 4.13333 7.38224 3.96 8.20891 3.96C9.00891 3.96 9.70891 4.13333 10.3089 4.48C10.9089 4.81333 11.3489 5.27333 11.6289 5.86L9.82891 6.92C9.62891 6.58667 9.38891 6.34667 9.10891 6.2C8.84224 6.05333 8.53557 5.98 8.18891 5.98C7.84224 5.98 7.52224 6.06 7.22891 6.22C6.94891 6.38 6.72224 6.61333 6.54891 6.92C6.37557 7.22667 6.28891 7.58667 6.28891 8C6.28891 8.41333 6.37557 8.77333 6.54891 9.08C6.72224 9.38667 6.94891 9.62 7.22891 9.78C7.52224 9.94 7.84224 10.02 8.18891 10.02C8.53557 10.02 8.84224 9.94667 9.10891 9.8C9.38891 9.65333 9.62891 9.41333 9.82891 9.08L11.6289 10.12C11.3489 10.7067 10.9089 11.1733 10.3089 11.52C9.70891 11.8667 9.00891 12.04 8.20891 12.04ZM21.3161 15L27.5561 0.999999H30.7561L37.0161 15H33.6161L28.4961 2.64H29.7761L24.6361 15H21.3161ZM24.4361 12L25.2961 9.54H32.4961L33.3761 12H24.4361ZM38.2486 15V0.159999H41.3686V15H38.2486ZM49.6042 15.16C48.3776 15.16 47.2976 14.92 46.3642 14.44C45.4442 13.96 44.7309 13.3067 44.2242 12.48C43.7176 11.64 43.4642 10.6867 43.4642 9.62C43.4642 8.54 43.7109 7.58667 44.2042 6.76C44.7109 5.92 45.3976 5.26667 46.2642 4.8C47.1309 4.32 48.1109 4.08 49.2042 4.08C50.2576 4.08 51.2042 4.30667 52.0442 4.76C52.8976 5.2 53.5709 5.84 54.0642 6.68C54.5576 7.50667 54.8042 8.5 54.8042 9.66C54.8042 9.78 54.7976 9.92 54.7842 10.08C54.7709 10.2267 54.7576 10.3667 54.7442 10.5H46.0042V8.68H53.1042L51.9042 9.22C51.9042 8.66 51.7909 8.17333 51.5642 7.76C51.3376 7.34667 51.0242 7.02667 50.6242 6.8C50.2242 6.56 49.7576 6.44 49.2242 6.44C48.6909 6.44 48.2176 6.56 47.8042 6.8C47.4042 7.02667 47.0909 7.35333 46.8642 7.78C46.6376 8.19333 46.5242 8.68667 46.5242 9.26V9.74C46.5242 10.3267 46.6509 10.8467 46.9042 11.3C47.1709 11.74 47.5376 12.08 48.0042 12.32C48.4842 12.5467 49.0442 12.66 49.6842 12.66C50.2576 12.66 50.7576 12.5733 51.1842 12.4C51.6242 12.2267 52.0242 11.9667 52.3842 11.62L54.0442 13.42C53.5509 13.98 52.9309 14.4133 52.1842 14.72C51.4376 15.0133 50.5776 15.16 49.6042 15.16ZM63.4214 4.08C64.2747 4.08 65.0347 4.25333 65.7014 4.6C66.3814 4.93333 66.9147 5.45333 67.3014 6.16C67.6881 6.85333 67.8814 7.74667 67.8814 8.84V15H64.7614V9.32C64.7614 8.45333 64.5681 7.81333 64.1814 7.4C63.8081 6.98667 63.2747 6.78 62.5814 6.78C62.0881 6.78 61.6414 6.88667 61.2414 7.1C60.8547 7.3 60.5481 7.61333 60.3214 8.04C60.1081 8.46667 60.0014 9.01333 60.0014 9.68V15H56.8814V4.24H59.8614V7.22L59.3014 6.32C59.6881 5.6 60.2414 5.04667 60.9614 4.66C61.6814 4.27333 62.5014 4.08 63.4214 4.08ZM77.3095 15V12.9L77.1095 12.44V8.68C77.1095 8.01333 76.9029 7.49333 76.4895 7.12C76.0895 6.74667 75.4695 6.56 74.6295 6.56C74.0562 6.56 73.4895 6.65333 72.9295 6.84C72.3829 7.01333 71.9162 7.25333 71.5295 7.56L70.4095 5.38C70.9962 4.96667 71.7029 4.64667 72.5295 4.42C73.3562 4.19333 74.1962 4.08 75.0495 4.08C76.6895 4.08 77.9629 4.46667 78.8695 5.24C79.7762 6.01333 80.2295 7.22 80.2295 8.86V15H77.3095ZM74.0295 15.16C73.1895 15.16 72.4695 15.02 71.8695 14.74C71.2695 14.4467 70.8095 14.0533 70.4895 13.56C70.1695 13.0667 70.0095 12.5133 70.0095 11.9C70.0095 11.26 70.1629 10.7 70.4695 10.22C70.7895 9.74 71.2895 9.36667 71.9695 9.1C72.6495 8.82 73.5362 8.68 74.6295 8.68H77.4895V10.5H74.9695C74.2362 10.5 73.7295 10.62 73.4495 10.86C73.1829 11.1 73.0495 11.4 73.0495 11.76C73.0495 12.16 73.2029 12.48 73.5095 12.72C73.8295 12.9467 74.2629 13.06 74.8095 13.06C75.3295 13.06 75.7962 12.94 76.2095 12.7C76.6229 12.4467 76.9229 12.08 77.1095 11.6L77.5895 13.04C77.3629 13.7333 76.9495 14.26 76.3495 14.62C75.7495 14.98 74.9762 15.16 74.0295 15.16ZM88.9373 15V0.999999H94.9973C96.2507 0.999999 97.3307 1.20667 98.2373 1.62C99.144 2.02 99.844 2.6 100.337 3.36C100.831 4.12 101.077 5.02667 101.077 6.08C101.077 7.12 100.831 8.02 100.337 8.78C99.844 9.54 99.144 10.1267 98.2373 10.54C97.3307 10.94 96.2507 11.14 94.9973 11.14H90.7373L92.1773 9.68V15H88.9373ZM92.1773 10.04L90.7373 8.5H94.8173C95.8173 8.5 96.564 8.28667 97.0573 7.86C97.5507 7.43333 97.7973 6.84 97.7973 6.08C97.7973 5.30667 97.5507 4.70667 97.0573 4.28C96.564 3.85333 95.8173 3.64 94.8173 3.64H90.7373L92.1773 2.1V10.04ZM108.271 15.16C107.124 15.16 106.104 14.92 105.211 14.44C104.331 13.96 103.631 13.3067 103.111 12.48C102.604 11.64 102.351 10.6867 102.351 9.62C102.351 8.54 102.604 7.58667 103.111 6.76C103.631 5.92 104.331 5.26667 105.211 4.8C106.104 4.32 107.124 4.08 108.271 4.08C109.404 4.08 110.418 4.32 111.311 4.8C112.204 5.26667 112.904 5.91333 113.411 6.74C113.918 7.56667 114.171 8.52667 114.171 9.62C114.171 10.6867 113.918 11.64 113.411 12.48C112.904 13.3067 112.204 13.96 111.311 14.44C110.418 14.92 109.404 15.16 108.271 15.16ZM108.271 12.6C108.791 12.6 109.258 12.48 109.671 12.24C110.084 12 110.411 11.66 110.651 11.22C110.891 10.7667 111.011 10.2333 111.011 9.62C111.011 8.99333 110.891 8.46 110.651 8.02C110.411 7.58 110.084 7.24 109.671 7C109.258 6.76 108.791 6.64 108.271 6.64C107.751 6.64 107.284 6.76 106.871 7C106.458 7.24 106.124 7.58 105.871 8.02C105.631 8.46 105.511 8.99333 105.511 9.62C105.511 10.2333 105.631 10.7667 105.871 11.22C106.124 11.66 106.458 12 106.871 12.24C107.284 12.48 107.751 12.6 108.271 12.6ZM120.876 15.16C119.863 15.16 118.95 14.9333 118.136 14.48C117.323 14.0133 116.676 13.3667 116.196 12.54C115.73 11.7133 115.496 10.74 115.496 9.62C115.496 8.48667 115.73 7.50667 116.196 6.68C116.676 5.85333 117.323 5.21333 118.136 4.76C118.95 4.30667 119.863 4.08 120.876 4.08C121.783 4.08 122.576 4.28 123.256 4.68C123.936 5.08 124.463 5.68667 124.836 6.5C125.21 7.31333 125.396 8.35333 125.396 9.62C125.396 10.8733 125.216 11.9133 124.856 12.74C124.496 13.5533 123.976 14.16 123.296 14.56C122.63 14.96 121.823 15.16 120.876 15.16ZM121.416 12.6C121.923 12.6 122.383 12.48 122.796 12.24C123.21 12 123.536 11.66 123.776 11.22C124.03 10.7667 124.156 10.2333 124.156 9.62C124.156 8.99333 124.03 8.46 123.776 8.02C123.536 7.58 123.21 7.24 122.796 7C122.383 6.76 121.923 6.64 121.416 6.64C120.896 6.64 120.43 6.76 120.016 7C119.603 7.24 119.27 7.58 119.016 8.02C118.776 8.46 118.656 8.99333 118.656 9.62C118.656 10.2333 118.776 10.7667 119.016 11.22C119.27 11.66 119.603 12 120.016 12.24C120.43 12.48 120.896 12.6 121.416 12.6ZM124.236 15V12.8L124.296 9.6L124.096 6.42V0.159999H127.216V15H124.236ZM136.704 15V12.9L136.504 12.44V8.68C136.504 8.01333 136.297 7.49333 135.884 7.12C135.484 6.74667 134.864 6.56 134.024 6.56C133.451 6.56 132.884 6.65333 132.324 6.84C131.777 7.01333 131.311 7.25333 130.924 7.56L129.804 5.38C130.391 4.96667 131.097 4.64667 131.924 4.42C132.751 4.19333 133.591 4.08 134.444 4.08C136.084 4.08 137.357 4.46667 138.264 5.24C139.171 6.01333 139.624 7.22 139.624 8.86V15H136.704ZM133.424 15.16C132.584 15.16 131.864 15.02 131.264 14.74C130.664 14.4467 130.204 14.0533 129.884 13.56C129.564 13.0667 129.404 12.5133 129.404 11.9C129.404 11.26 129.557 10.7 129.864 10.22C130.184 9.74 130.684 9.36667 131.364 9.1C132.044 8.82 132.931 8.68 134.024 8.68H136.884V10.5H134.364C133.631 10.5 133.124 10.62 132.844 10.86C132.577 11.1 132.444 11.4 132.444 11.76C132.444 12.16 132.597 12.48 132.904 12.72C133.224 12.9467 133.657 13.06 134.204 13.06C134.724 13.06 135.191 12.94 135.604 12.7C136.017 12.4467 136.317 12.08 136.504 11.6L136.984 13.04C136.757 13.7333 136.344 14.26 135.744 14.62C135.144 14.98 134.371 15.16 133.424 15.16ZM148.988 4.08C149.841 4.08 150.601 4.25333 151.268 4.6C151.948 4.93333 152.481 5.45333 152.868 6.16C153.254 6.85333 153.448 7.74667 153.448 8.84V15H150.328V9.32C150.328 8.45333 150.134 7.81333 149.748 7.4C149.374 6.98667 148.841 6.78 148.148 6.78C147.654 6.78 147.208 6.88667 146.808 7.1C146.421 7.3 146.114 7.61333 145.888 8.04C145.674 8.46667 145.568 9.01333 145.568 9.68V15H142.448V4.24H145.428V7.22L144.868 6.32C145.254 5.6 145.808 5.04667 146.528 4.66C147.248 4.27333 148.068 4.08 148.988 4.08ZM161.694 15.16C160.467 15.16 159.387 14.92 158.454 14.44C157.534 13.96 156.821 13.3067 156.314 12.48C155.807 11.64 155.554 10.6867 155.554 9.62C155.554 8.54 155.801 7.58667 156.294 6.76C156.801 5.92 157.487 5.26667 158.354 4.8C159.221 4.32 160.201 4.08 161.294 4.08C162.347 4.08 163.294 4.30667 164.134 4.76C164.987 5.2 165.661 5.84 166.154 6.68C166.647 7.50667 166.894 8.5 166.894 9.66C166.894 9.78 166.887 9.92 166.874 10.08C166.861 10.2267 166.847 10.3667 166.834 10.5H158.094V8.68H165.194L163.994 9.22C163.994 8.66 163.881 8.17333 163.654 7.76C163.427 7.34667 163.114 7.02667 162.714 6.8C162.314 6.56 161.847 6.44 161.314 6.44C160.781 6.44 160.307 6.56 159.894 6.8C159.494 7.02667 159.181 7.35333 158.954 7.78C158.727 8.19333 158.614 8.68667 158.614 9.26V9.74C158.614 10.3267 158.741 10.8467 158.994 11.3C159.261 11.74 159.627 12.08 160.094 12.32C160.574 12.5467 161.134 12.66 161.774 12.66C162.347 12.66 162.847 12.5733 163.274 12.4C163.714 12.2267 164.114 11.9667 164.474 11.62L166.134 13.42C165.641 13.98 165.021 14.4133 164.274 14.72C163.527 15.0133 162.667 15.16 161.694 15.16ZM171.696 15L167.176 4.24H170.396L174.156 13.5H172.556L176.456 4.24H179.456L174.916 15H171.696ZM186.978 15V12.9L186.778 12.44V8.68C186.778 8.01333 186.571 7.49333 186.158 7.12C185.758 6.74667 185.138 6.56 184.298 6.56C183.724 6.56 183.158 6.65333 182.598 6.84C182.051 7.01333 181.584 7.25333 181.198 7.56L180.078 5.38C180.664 4.96667 181.371 4.64667 182.198 4.42C183.024 4.19333 183.864 4.08 184.718 4.08C186.358 4.08 187.631 4.46667 188.538 5.24C189.444 6.01333 189.898 7.22 189.898 8.86V15H186.978ZM183.698 15.16C182.858 15.16 182.138 15.02 181.538 14.74C180.938 14.4467 180.478 14.0533 180.158 13.56C179.838 13.0667 179.678 12.5133 179.678 11.9C179.678 11.26 179.831 10.7 180.138 10.22C180.458 9.74 180.958 9.36667 181.638 9.1C182.318 8.82 183.204 8.68 184.298 8.68H187.158V10.5H184.638C183.904 10.5 183.398 10.62 183.118 10.86C182.851 11.1 182.718 11.4 182.718 11.76C182.718 12.16 182.871 12.48 183.178 12.72C183.498 12.9467 183.931 13.06 184.478 13.06C184.998 13.06 185.464 12.94 185.878 12.7C186.291 12.4467 186.591 12.08 186.778 11.6L187.258 13.04C187.031 13.7333 186.618 14.26 186.018 14.62C185.418 14.98 184.644 15.16 183.698 15.16ZM197.605 15V12.9L203.005 7.8C203.432 7.41333 203.745 7.06667 203.945 6.76C204.145 6.45333 204.279 6.17333 204.345 5.92C204.425 5.66667 204.465 5.43333 204.465 5.22C204.465 4.66 204.272 4.23333 203.885 3.94C203.512 3.63333 202.959 3.48 202.225 3.48C201.639 3.48 201.092 3.59333 200.585 3.82C200.092 4.04667 199.672 4.4 199.325 4.88L196.965 3.36C197.499 2.56 198.245 1.92667 199.205 1.46C200.165 0.993333 201.272 0.76 202.525 0.76C203.565 0.76 204.472 0.933333 205.245 1.28C206.032 1.61333 206.639 2.08667 207.065 2.7C207.505 3.31333 207.725 4.04667 207.725 4.9C207.725 5.35333 207.665 5.80667 207.545 6.26C207.439 6.7 207.212 7.16667 206.865 7.66C206.532 8.15333 206.039 8.70667 205.385 9.32L200.905 13.54L200.285 12.36H208.185V15H197.605ZM215.522 15.24C214.376 15.24 213.349 14.96 212.442 14.4C211.536 13.8267 210.822 13 210.302 11.92C209.782 10.84 209.522 9.53333 209.522 8C209.522 6.46667 209.782 5.16 210.302 4.08C210.822 3 211.536 2.18 212.442 1.62C213.349 1.04667 214.376 0.76 215.522 0.76C216.682 0.76 217.709 1.04667 218.602 1.62C219.509 2.18 220.222 3 220.742 4.08C221.262 5.16 221.522 6.46667 221.522 8C221.522 9.53333 221.262 10.84 220.742 11.92C220.222 13 219.509 13.8267 218.602 14.4C217.709 14.96 216.682 15.24 215.522 15.24ZM215.522 12.5C216.069 12.5 216.542 12.3467 216.942 12.04C217.356 11.7333 217.676 11.2467 217.902 10.58C218.142 9.91333 218.262 9.05333 218.262 8C218.262 6.94667 218.142 6.08667 217.902 5.42C217.676 4.75333 217.356 4.26667 216.942 3.96C216.542 3.65333 216.069 3.5 215.522 3.5C214.989 3.5 214.516 3.65333 214.102 3.96C213.702 4.26667 213.382 4.75333 213.142 5.42C212.916 6.08667 212.802 6.94667 212.802 8C212.802 9.05333 212.916 9.91333 213.142 10.58C213.382 11.2467 213.702 11.7333 214.102 12.04C214.516 12.3467 214.989 12.5 215.522 12.5ZM222.898 15V12.9L228.298 7.8C228.725 7.41333 229.038 7.06667 229.238 6.76C229.438 6.45333 229.572 6.17333 229.638 5.92C229.718 5.66667 229.758 5.43333 229.758 5.22C229.758 4.66 229.565 4.23333 229.178 3.94C228.805 3.63333 228.252 3.48 227.518 3.48C226.932 3.48 226.385 3.59333 225.878 3.82C225.385 4.04667 224.965 4.4 224.618 4.88L222.258 3.36C222.792 2.56 223.538 1.92667 224.498 1.46C225.458 0.993333 226.565 0.76 227.818 0.76C228.858 0.76 229.765 0.933333 230.538 1.28C231.325 1.61333 231.932 2.08667 232.358 2.7C232.798 3.31333 233.018 4.04667 233.018 4.9C233.018 5.35333 232.958 5.80667 232.838 6.26C232.732 6.7 232.505 7.16667 232.158 7.66C231.825 8.15333 231.332 8.70667 230.678 9.32L226.198 13.54L225.578 12.36H233.478V15H222.898ZM239.355 15.24C238.382 15.24 237.415 15.1133 236.455 14.86C235.495 14.5933 234.682 14.22 234.015 13.74L235.275 11.26C235.808 11.6467 236.428 11.9533 237.135 12.18C237.842 12.4067 238.555 12.52 239.275 12.52C240.088 12.52 240.728 12.36 241.195 12.04C241.662 11.72 241.895 11.28 241.895 10.72C241.895 10.1867 241.688 9.76667 241.275 9.46C240.862 9.15333 240.195 9 239.275 9H237.795V6.86L241.695 2.44L242.055 3.6H234.715V0.999999H244.515V3.1L240.635 7.52L238.995 6.58H239.935C241.655 6.58 242.955 6.96667 243.835 7.74C244.715 8.51333 245.155 9.50667 245.155 10.72C245.155 11.5067 244.948 12.2467 244.535 12.94C244.122 13.62 243.488 14.1733 242.635 14.6C241.782 15.0267 240.688 15.24 239.355 15.24Z" fill="black"/>
</svg>
