<svg xmlns="http://www.w3.org/2000/svg" xmlns:xlink="http://www.w3.org/1999/xlink"><symbol id="education" viewBox="0 0 1024 1024">
  <path d="m781.49 428.6-27-14.84-242.8-134.9a28.89 28.89 0 0 0-26.44 0l-242.82 134.9a27 27 0 0 0 0 46.95l67.18 37.23v127.88a80.94 80.94 0 0 0 80.94 80.94h215.84a80.94 80.94 0 0 0 80.94-80.94V497.94l54-30.22v77.16a27 27 0 1 0 54 0v-92.81a27 27 0 0 0-13.84-23.47zM633.37 625.82a27 27 0 0 1-27 27H390.55a27 27 0 0 1-27-27v-97.94l121.68 67.45a26.81 26.81 0 0 0 13.22 3.2 28.86 28.86 0 0 0 11.08-2.15 12.68 12.68 0 0 0 1.58-.74c.36-.19.55-.31.55-.31l121.68-67.45zm-134.9-84.72L311.23 437l187.24-104.18L685.71 437z" style="fill:#f200ae"/>
</symbol><symbol id="linkedin" viewBox="0 0 32 32"><g fill="currentColor">
  <path d="M23,0H9C4,0,0,4,0,9v14c0,5,4,9,9,9h14c5,0,9-4,9-9V9C32,4,28,0,23,0z M12,25c0,0.6-0.4,1-1,1H7c-0.6,0-1-0.4-1-1V13 c0-0.6,0.4-1,1-1h4c0.6,0,1,0.4,1,1V25z M9,11c-1.7,0-3-1.3-3-3s1.3-3,3-3s3,1.3,3,3S10.7,11,9,11z M26,25c0,0.6-0.4,1-1,1h-3 c-0.6,0-1-0.4-1-1v-3.5v-1v-2c0-0.8-0.7-1.5-1.5-1.5S18,17.7,18,18.5v2v1V25c0,0.6-0.4,1-1,1h-3c-0.6,0-1-0.4-1-1V13 c0-0.6,0.4-1,1-1h4c0.3,0,0.5,0.1,0.7,0.3c0.6-0.2,1.2-0.3,1.8-0.3c3,0,5.5,2.5,5.5,5.5V25z"/>
</g></symbol><symbol id="speaker" viewBox="0 0 82.38 82.38"><g fill="#f200ae">
<g>
	<path d="M82.38,64.778v15.706H0V64.778h66.857c0.031-3.323-0.522-7.079-2.625-9.851c-1.854-2.444-4.709-3.817-8.492-4.104
		c-0.309,0.585-0.904,0.996-1.612,0.996H50.96c-1.021,0-1.849-0.827-1.849-1.849c0-1.022,0.828-1.85,1.849-1.85h3.168
		c0.827,0,1.501,0.553,1.737,1.301c4.193,0.318,7.385,1.877,9.492,4.656c2.34,3.088,2.955,7.145,2.926,10.698H82.38V64.778z
		 M41.19,36.269c9.492,0,17.187-7.694,17.187-17.187c0-9.493-7.695-17.186-17.187-17.186c-9.493,0-17.187,7.694-17.187,17.187
		C24.003,28.576,31.697,36.269,41.19,36.269z M62.24,56.587c-1.23-1.623-3.045-2.606-5.525-2.989
		c-0.736,0.557-1.638,0.872-2.587,0.872H50.96c-2.397,0-4.349-1.951-4.349-4.35c0-2.397,1.951-4.349,4.349-4.349h3.168
		c1.257,0,2.412,0.543,3.213,1.442c3.755,0.512,6.786,1.978,9.042,4.365c-0.007-0.089-0.004-0.18-0.012-0.269l-0.791-3.935
		c-1.93-6.203-6.958-11.046-13.271-12.716c-2.92,2.724-6.822,4.404-11.119,4.404c-4.298,0-8.202-1.681-11.119-4.404
		c-8.122,2.147-14.137,9.537-14.137,18.322v9.443h48.313C63.994,59.996,63.314,58.003,62.24,56.587z"/>
</g>
</g></symbol><symbol id="talk" viewBox="0 0 1024 1024">
  <path d="M710.5 677.7c53.2-71.4 38.6-172.4-32.8-225.6-9.4-7-19.6-13-30.3-17.8C630 334 534.6 266.9 434.3 284.3s-167.4 112.8-150 213.1c5.2 29.8 17.6 57.9 36.2 81.8l-32 31.8c-6.5 6.6-8.4 16.5-4.8 25.1 3.5 8.6 11.9 14.2 21.2 14.3H436c26.6 56.2 83.2 92 145.3 92.1h138.2c9.3 0 17.7-5.7 21.2-14.3 3.6-8.6 1.7-18.5-4.8-25.1l-25.4-25.4zM420 581.2c0 7.7.6 15.4 1.8 23h-61.5l8.1-7.8c9-9 9.1-23.5.1-32.6l-.1-.1c-26.1-25.8-40.7-61-40.5-97.7 0-76.3 61.9-138.2 138.2-138.2 58.6-.4 111 36.7 130.1 92.1h-15c-89 .1-161.2 72.3-161.2 161.3zm242.8 115.2 1.2 1.2h-82.7c-63.6-.1-115.1-51.8-115-115.4s51.8-115.1 115.4-115 115.1 51.8 115 115.4c-.1 30.5-12.2 59.8-33.8 81.3-4.3 4.3-6.8 10-6.9 16.1-.1 6.2 2.4 12.1 6.8 16.4z" style="fill:#f200ae"/>
</symbol><symbol id="twitter" viewBox="0 0 24 24"><g fill="currentColor"> <path d="M18.244 2.25h3.308l-7.227 8.26 8.502 11.24H16.17l-5.214-6.817L4.99 21.75H1.68l7.73-8.835L1.254 2.25H8.08l4.713 6.231zm-1.161 17.52h1.833L7.084 4.126H5.117z"/> </g></symbol></svg>