<svg width="32" height="32" viewBox="0 0 32 32" fill="none" xmlns="http://www.w3.org/2000/svg">
<path d="M0 23.294L6.81677 8H10.3125L17.1512 23.294H13.4369L7.84365 9.79159H9.24196L3.62687 23.294H0ZM3.40838 20.0167L4.34787 17.3294H12.2134L13.1747 20.0167H3.40838ZM18.7379 23.294V8H25.358C26.7273 8 27.9071 8.22577 28.8975 8.67731C29.888 9.11428 30.6527 9.74789 31.1916 10.5781C31.7306 11.4084 32 12.3989 32 13.5496C32 14.6857 31.7306 15.6689 31.1916 16.4991C30.6527 17.3294 29.888 17.9703 28.8975 18.4218C27.9071 18.8588 26.7273 19.0773 25.358 19.0773H20.7043L22.2774 17.4823V23.294H18.7379ZM22.2774 17.8756L20.7043 16.1932H25.1614C26.2538 16.1932 27.0695 15.9602 27.6084 15.4941C28.1475 15.028 28.4168 14.3798 28.4168 13.5496C28.4168 12.7047 28.1475 12.0493 27.6084 11.5832C27.0695 11.1171 26.2538 10.884 25.1614 10.884H20.7043L22.2774 9.20167V17.8756Z" fill="#F200AE"/>
</svg>
