<svg width="325" height="47" viewBox="0 0 325 47" fill="none" xmlns="http://www.w3.org/2000/svg">
<path d="M0.13332 22L9.49332 0.999999H14.2933L23.6833 22H18.5833L10.9033 3.46H12.8233L5.11332 22H0.13332ZM4.81332 17.5L6.10332 13.81H16.9033L18.2233 17.5H4.81332ZM25.8621 22V0.999999H30.7221V18.04H41.2521V22H25.8621ZM48.4375 9.46H58.5475V13.24H48.4375V9.46ZM48.7975 18.1H60.2275V22H43.9675V0.999999H59.8375V4.9H48.7975V18.1ZM64.0945 22V0.999999H68.1145L80.5045 16.12H78.5545V0.999999H83.3545V22H79.3645L66.9445 6.88H68.8945V22H64.0945ZM85.563 22L94.923 0.999999H99.723L109.113 22H104.013L96.333 3.46H98.253L90.543 22H85.563ZM90.243 17.5L91.533 13.81H102.333L103.653 17.5H90.243ZM119.788 22V0.999999H128.878C130.758 0.999999 132.378 1.31 133.738 1.93C135.098 2.53 136.148 3.4 136.888 4.54C137.628 5.68 137.998 7.04 137.998 8.62C137.998 10.18 137.628 11.53 136.888 12.67C136.148 13.81 135.098 14.69 133.738 15.31C132.378 15.91 130.758 16.21 128.878 16.21H122.488L124.648 14.02V22H119.788ZM124.648 14.56L122.488 12.25H128.608C130.108 12.25 131.228 11.93 131.968 11.29C132.708 10.65 133.078 9.76 133.078 8.62C133.078 7.46 132.708 6.56 131.968 5.92C131.228 5.28 130.108 4.96 128.608 4.96H122.488L124.648 2.65V14.56ZM151.961 22.36C150.301 22.36 148.761 22.09 147.341 21.55C145.941 21.01 144.721 20.25 143.681 19.27C142.661 18.29 141.861 17.14 141.281 15.82C140.721 14.5 140.441 13.06 140.441 11.5C140.441 9.94 140.721 8.5 141.281 7.18C141.861 5.86 142.671 4.71 143.711 3.73C144.751 2.75 145.971 1.99 147.371 1.45C148.771 0.909999 150.291 0.64 151.931 0.64C153.591 0.64 155.111 0.909999 156.491 1.45C157.891 1.99 159.101 2.75 160.121 3.73C161.161 4.71 161.971 5.86 162.551 7.18C163.131 8.48 163.421 9.92 163.421 11.5C163.421 13.06 163.131 14.51 162.551 15.85C161.971 17.17 161.161 18.32 160.121 19.3C159.101 20.26 157.891 21.01 156.491 21.55C155.111 22.09 153.601 22.36 151.961 22.36ZM151.931 18.22C152.871 18.22 153.731 18.06 154.511 17.74C155.311 17.42 156.011 16.96 156.611 16.36C157.211 15.76 157.671 15.05 157.991 14.23C158.331 13.41 158.501 12.5 158.501 11.5C158.501 10.5 158.331 9.59 157.991 8.77C157.671 7.95 157.211 7.24 156.611 6.64C156.031 6.04 155.341 5.58 154.541 5.26C153.741 4.94 152.871 4.78 151.931 4.78C150.991 4.78 150.121 4.94 149.321 5.26C148.541 5.58 147.851 6.04 147.251 6.64C146.651 7.24 146.181 7.95 145.841 8.77C145.521 9.59 145.361 10.5 145.361 11.5C145.361 12.48 145.521 13.39 145.841 14.23C146.181 15.05 146.641 15.76 147.221 16.36C147.821 16.96 148.521 17.42 149.321 17.74C150.121 18.06 150.991 18.22 151.931 18.22ZM167.073 22V0.999999H176.613C178.893 0.999999 180.903 1.44 182.643 2.32C184.383 3.18 185.743 4.39 186.723 5.95C187.703 7.51 188.193 9.36 188.193 11.5C188.193 13.62 187.703 15.47 186.723 17.05C185.743 18.61 184.383 19.83 182.643 20.71C180.903 21.57 178.893 22 176.613 22H167.073ZM171.933 18.01H176.373C177.773 18.01 178.983 17.75 180.003 17.23C181.043 16.69 181.843 15.93 182.403 14.95C182.983 13.97 183.273 12.82 183.273 11.5C183.273 10.16 182.983 9.01 182.403 8.05C181.843 7.07 181.043 6.32 180.003 5.8C178.983 5.26 177.773 4.99 176.373 4.99H171.933V18.01ZM188.805 22L198.165 0.999999H202.965L212.355 22H207.255L199.575 3.46H201.495L193.785 22H188.805ZM193.485 17.5L194.775 13.81H205.575L206.895 17.5H193.485ZM214.534 22V0.999999H218.554L230.944 16.12H228.994V0.999999H233.794V22H229.804L217.384 6.88H219.334V22H214.534ZM243.232 9.46H253.342V13.24H243.232V9.46ZM243.592 18.1H255.022V22H238.762V0.999999H254.632V4.9H243.592V18.1ZM264.896 22L255.836 0.999999H261.086L269.006 19.6H265.916L273.956 0.999999H278.786L269.696 22H264.896ZM277.077 22L286.437 0.999999H291.237L300.627 22H295.527L287.847 3.46H289.767L282.057 22H277.077ZM281.757 17.5L283.047 13.81H293.847L295.167 17.5H281.757ZM300.826 9.52L300.526 0.999999H304.516L304.186 9.52H300.826ZM315.36 22.36C313.68 22.36 312.07 22.14 310.53 21.7C308.99 21.24 307.75 20.65 306.81 19.93L308.46 16.27C309.36 16.91 310.42 17.44 311.64 17.86C312.88 18.26 314.13 18.46 315.39 18.46C316.35 18.46 317.12 18.37 317.7 18.19C318.3 17.99 318.74 17.72 319.02 17.38C319.3 17.04 319.44 16.65 319.44 16.21C319.44 15.65 319.22 15.21 318.78 14.89C318.34 14.55 317.76 14.28 317.04 14.08C316.32 13.86 315.52 13.66 314.64 13.48C313.78 13.28 312.91 13.04 312.03 12.76C311.17 12.48 310.38 12.12 309.66 11.68C308.94 11.24 308.35 10.66 307.89 9.94C307.45 9.22 307.23 8.3 307.23 7.18C307.23 5.98 307.55 4.89 308.19 3.91C308.85 2.91 309.83 2.12 311.13 1.54C312.45 0.939999 314.1 0.64 316.08 0.64C317.4 0.64 318.7 0.799999 319.98 1.12C321.26 1.42 322.39 1.88 323.37 2.5L321.87 6.19C320.89 5.63 319.91 5.22 318.93 4.96C317.95 4.68 316.99 4.54 316.05 4.54C315.11 4.54 314.34 4.65 313.74 4.87C313.14 5.09 312.71 5.38 312.45 5.74C312.19 6.08 312.06 6.48 312.06 6.94C312.06 7.48 312.28 7.92 312.72 8.26C313.16 8.58 313.74 8.84 314.46 9.04C315.18 9.24 315.97 9.44 316.83 9.64C317.71 9.84 318.58 10.07 319.44 10.33C320.32 10.59 321.12 10.94 321.84 11.38C322.56 11.82 323.14 12.4 323.58 13.12C324.04 13.84 324.27 14.75 324.27 15.85C324.27 17.03 323.94 18.11 323.28 19.09C322.62 20.07 321.63 20.86 320.31 21.46C319.01 22.06 317.36 22.36 315.36 22.36Z" fill="#F200AE"/>
<path d="M89.0494 46V32H94.0694C95.2427 32 96.2494 32.1867 97.0894 32.56C97.9294 32.9333 98.576 33.4733 99.0294 34.18C99.4827 34.8733 99.7094 35.72 99.7094 36.72C99.7094 37.6933 99.4827 38.5333 99.0294 39.24C98.576 39.9467 97.9294 40.4867 97.0894 40.86C96.2494 41.2333 95.2427 41.42 94.0694 41.42H89.6094L90.0694 40.94V46H89.0494ZM90.0694 41L89.6094 40.5H94.0694C95.576 40.5 96.716 40.1733 97.4894 39.52C98.276 38.8533 98.6694 37.92 98.6694 36.72C98.6694 35.5067 98.276 34.5733 97.4894 33.92C96.716 33.2533 95.576 32.92 94.0694 32.92H89.6094L90.0694 32.42V41ZM104.051 38.44H111.631V39.34H104.051V38.44ZM104.171 45.08H112.811V46H103.151V32H112.511V32.92H104.171V45.08ZM116.53 46V32H121.55C122.723 32 123.73 32.1867 124.57 32.56C125.41 32.9333 126.057 33.4733 126.51 34.18C126.963 34.8733 127.19 35.72 127.19 36.72C127.19 37.6933 126.963 38.5333 126.51 39.24C126.057 39.9333 125.41 40.4733 124.57 40.86C123.73 41.2333 122.723 41.42 121.55 41.42H117.09L117.55 40.94V46H116.53ZM126.25 46L122.61 40.92H123.77L127.41 46H126.25ZM117.55 41L117.09 40.52H121.55C123.057 40.52 124.197 40.1867 124.97 39.52C125.757 38.8533 126.15 37.92 126.15 36.72C126.15 35.5067 125.757 34.5733 124.97 33.92C124.197 33.2533 123.057 32.92 121.55 32.92H117.09L117.55 32.42V41ZM134.604 46.1C133.564 46.1 132.578 45.9267 131.644 45.58C130.724 45.22 130.011 44.76 129.504 44.2L129.964 43.44C130.444 43.9333 131.098 44.3533 131.924 44.7C132.764 45.0333 133.651 45.2 134.584 45.2C135.518 45.2 136.278 45.08 136.864 44.84C137.464 44.5867 137.904 44.2533 138.184 43.84C138.478 43.4267 138.624 42.9667 138.624 42.46C138.624 41.86 138.464 41.38 138.144 41.02C137.824 40.66 137.404 40.3733 136.884 40.16C136.364 39.9467 135.798 39.7667 135.184 39.62C134.571 39.4733 133.951 39.32 133.324 39.16C132.698 38.9867 132.124 38.7667 131.604 38.5C131.084 38.2333 130.664 37.8733 130.344 37.42C130.038 36.9533 129.884 36.3533 129.884 35.62C129.884 34.9533 130.058 34.34 130.404 33.78C130.751 33.22 131.291 32.7667 132.024 32.42C132.758 32.0733 133.698 31.9 134.844 31.9C135.618 31.9 136.378 32.0133 137.124 32.24C137.884 32.4667 138.531 32.7733 139.064 33.16L138.684 33.98C138.098 33.58 137.464 33.2867 136.784 33.1C136.118 32.9 135.471 32.8 134.844 32.8C133.951 32.8 133.211 32.9267 132.624 33.18C132.038 33.4333 131.604 33.7733 131.324 34.2C131.044 34.6133 130.904 35.08 130.904 35.6C130.904 36.2 131.058 36.68 131.364 37.04C131.684 37.4 132.104 37.6867 132.624 37.9C133.144 38.1133 133.718 38.2933 134.344 38.44C134.971 38.5867 135.591 38.7467 136.204 38.92C136.818 39.08 137.384 39.2933 137.904 39.56C138.424 39.8267 138.844 40.1867 139.164 40.64C139.484 41.0933 139.644 41.68 139.644 42.4C139.644 43.0533 139.464 43.6667 139.104 44.24C138.744 44.8 138.191 45.2533 137.444 45.6C136.711 45.9333 135.764 46.1 134.604 46.1ZM149.052 46.1C148.012 46.1 147.045 45.9267 146.152 45.58C145.272 45.22 144.499 44.72 143.832 44.08C143.179 43.4267 142.672 42.6733 142.312 41.82C141.952 40.9533 141.772 40.0133 141.772 39C141.772 37.9867 141.952 37.0533 142.312 36.2C142.672 35.3333 143.179 34.58 143.832 33.94C144.499 33.2867 145.272 32.7867 146.152 32.44C147.045 32.08 148.012 31.9 149.052 31.9C150.092 31.9 151.052 32.08 151.932 32.44C152.825 32.7867 153.599 33.28 154.252 33.92C154.905 34.56 155.412 35.3133 155.772 36.18C156.145 37.0333 156.332 37.9733 156.332 39C156.332 40.0267 156.145 40.9733 155.772 41.84C155.412 42.6933 154.905 43.44 154.252 44.08C153.599 44.72 152.825 45.22 151.932 45.58C151.052 45.9267 150.092 46.1 149.052 46.1ZM149.052 45.16C149.945 45.16 150.772 45.0067 151.532 44.7C152.292 44.3933 152.952 43.96 153.512 43.4C154.072 42.84 154.505 42.1867 154.812 41.44C155.132 40.6933 155.292 39.88 155.292 39C155.292 38.1067 155.132 37.2933 154.812 36.56C154.505 35.8133 154.072 35.16 153.512 34.6C152.952 34.04 152.292 33.6067 151.532 33.3C150.772 32.9933 149.945 32.84 149.052 32.84C148.159 32.84 147.332 32.9933 146.572 33.3C145.812 33.6067 145.145 34.04 144.572 34.6C144.012 35.16 143.572 35.8133 143.252 36.56C142.945 37.2933 142.792 38.1067 142.792 39C142.792 39.88 142.945 40.6933 143.252 41.44C143.572 42.1867 144.012 42.84 144.572 43.4C145.145 43.96 145.812 44.3933 146.572 44.7C147.332 45.0067 148.159 45.16 149.052 45.16ZM159.87 46V32H160.73L170.71 44.74H170.25V32H171.27V46H170.43L160.43 33.26H160.89V46H159.87ZM173.819 46L180.259 32H181.279L187.719 46H186.619L180.539 32.64H180.979L174.919 46H173.819ZM176.179 42.06L176.519 41.2H184.899L185.239 42.06H176.179ZM190.26 46V32H191.28V45.08H199.34V46H190.26ZM210.776 46.1C209.736 46.1 208.75 45.9267 207.816 45.58C206.896 45.22 206.183 44.76 205.676 44.2L206.136 43.44C206.616 43.9333 207.27 44.3533 208.096 44.7C208.936 45.0333 209.823 45.2 210.756 45.2C211.69 45.2 212.45 45.08 213.036 44.84C213.636 44.5867 214.076 44.2533 214.356 43.84C214.65 43.4267 214.796 42.9667 214.796 42.46C214.796 41.86 214.636 41.38 214.316 41.02C213.996 40.66 213.576 40.3733 213.056 40.16C212.536 39.9467 211.97 39.7667 211.356 39.62C210.743 39.4733 210.123 39.32 209.496 39.16C208.87 38.9867 208.296 38.7667 207.776 38.5C207.256 38.2333 206.836 37.8733 206.516 37.42C206.21 36.9533 206.056 36.3533 206.056 35.62C206.056 34.9533 206.23 34.34 206.576 33.78C206.923 33.22 207.463 32.7667 208.196 32.42C208.93 32.0733 209.87 31.9 211.016 31.9C211.79 31.9 212.55 32.0133 213.296 32.24C214.056 32.4667 214.703 32.7733 215.236 33.16L214.856 33.98C214.27 33.58 213.636 33.2867 212.956 33.1C212.29 32.9 211.643 32.8 211.016 32.8C210.123 32.8 209.383 32.9267 208.796 33.18C208.21 33.4333 207.776 33.7733 207.496 34.2C207.216 34.6133 207.076 35.08 207.076 35.6C207.076 36.2 207.23 36.68 207.536 37.04C207.856 37.4 208.276 37.6867 208.796 37.9C209.316 38.1133 209.89 38.2933 210.516 38.44C211.143 38.5867 211.763 38.7467 212.376 38.92C212.99 39.08 213.556 39.2933 214.076 39.56C214.596 39.8267 215.016 40.1867 215.336 40.64C215.656 41.0933 215.816 41.68 215.816 42.4C215.816 43.0533 215.636 43.6667 215.276 44.24C214.916 44.8 214.363 45.2533 213.616 45.6C212.883 45.9333 211.936 46.1 210.776 46.1ZM219.284 46V32H220.304V46H219.284ZM227.862 46V32.92H222.822V32H233.922V32.92H228.882V46H227.862ZM237.352 38.44H244.932V39.34H237.352V38.44ZM237.472 45.08H246.112V46H236.452V32H245.812V32.92H237.472V45.08Z" fill="black"/>
</svg>
