<svg width="395" height="60" viewBox="0 0 395 60" fill="none" xmlns="http://www.w3.org/2000/svg">
<path d="M2.49 29V8H12.03C14.31 8 16.32 8.44 18.06 9.32C19.8 10.18 21.16 11.39 22.14 12.95C23.12 14.51 23.61 16.36 23.61 18.5C23.61 20.62 23.12 22.47 22.14 24.05C21.16 25.61 19.8 26.83 18.06 27.71C16.32 28.57 14.31 29 12.03 29H2.49ZM7.35 25.01H11.79C13.19 25.01 14.4 24.75 15.42 24.23C16.46 23.69 17.26 22.93 17.82 21.95C18.4 20.97 18.69 19.82 18.69 18.5C18.69 17.16 18.4 16.01 17.82 15.05C17.26 14.07 16.46 13.32 15.42 12.8C14.4 12.26 13.19 11.99 11.79 11.99H7.35V25.01ZM27.2752 29V8H36.3652C38.2452 8 39.8652 8.31 41.2252 8.93C42.5852 9.53 43.6352 10.4 44.3752 11.54C45.1152 12.68 45.4852 14.04 45.4852 15.62C45.4852 17.18 45.1152 18.53 44.3752 19.67C43.6352 20.79 42.5852 21.65 41.2252 22.25C39.8652 22.85 38.2452 23.15 36.3652 23.15H29.9752L32.1352 21.02V29H27.2752ZM40.6252 29L35.3752 21.38H40.5652L45.8752 29H40.6252ZM32.1352 21.56L29.9752 19.28H36.0952C37.5952 19.28 38.7152 18.96 39.4552 18.32C40.1952 17.66 40.5652 16.76 40.5652 15.62C40.5652 14.46 40.1952 13.56 39.4552 12.92C38.7152 12.28 37.5952 11.96 36.0952 11.96H29.9752L32.1352 9.65V21.56ZM50.7757 29.24C49.9757 29.24 49.2857 28.97 48.7057 28.43C48.1457 27.87 47.8657 27.16 47.8657 26.3C47.8657 25.44 48.1457 24.75 48.7057 24.23C49.2857 23.69 49.9757 23.42 50.7757 23.42C51.5957 23.42 52.2857 23.69 52.8457 24.23C53.4057 24.75 53.6857 25.44 53.6857 26.3C53.6857 27.16 53.4057 27.87 52.8457 28.43C52.2857 28.97 51.5957 29.24 50.7757 29.24ZM62.9234 29L72.2834 8H77.0834L86.4734 29H81.3734L73.6934 10.46H75.6134L67.9034 29H62.9234ZM67.6034 24.5L68.8934 20.81H79.6934L81.0134 24.5H67.6034ZM88.6521 29V8H93.5121V25.04H104.042V29H88.6521ZM111.228 16.46H121.338V20.24H111.228V16.46ZM111.588 25.1H123.018V29H106.758V8H122.628V11.9H111.588V25.1ZM126.885 29V8H130.905L143.295 23.12H141.345V8H146.145V29H142.155L129.735 13.88H131.685V29H126.885ZM148.353 29L157.713 8H162.513L171.903 29H166.803L159.123 10.46H161.043L153.333 29H148.353ZM153.033 24.5L154.323 20.81H165.123L166.443 24.5H153.033ZM182.578 29V8H191.668C193.548 8 195.168 8.31 196.528 8.93C197.888 9.53 198.938 10.4 199.678 11.54C200.418 12.68 200.788 14.04 200.788 15.62C200.788 17.18 200.418 18.53 199.678 19.67C198.938 20.81 197.888 21.69 196.528 22.31C195.168 22.91 193.548 23.21 191.668 23.21H185.278L187.438 21.02V29H182.578ZM187.438 21.56L185.278 19.25H191.398C192.898 19.25 194.018 18.93 194.758 18.29C195.498 17.65 195.868 16.76 195.868 15.62C195.868 14.46 195.498 13.56 194.758 12.92C194.018 12.28 192.898 11.96 191.398 11.96H185.278L187.438 9.65V21.56ZM214.751 29.36C213.091 29.36 211.551 29.09 210.131 28.55C208.731 28.01 207.511 27.25 206.471 26.27C205.451 25.29 204.651 24.14 204.071 22.82C203.511 21.5 203.231 20.06 203.231 18.5C203.231 16.94 203.511 15.5 204.071 14.18C204.651 12.86 205.461 11.71 206.501 10.73C207.541 9.75 208.761 8.99 210.161 8.45C211.561 7.91 213.081 7.64 214.721 7.64C216.381 7.64 217.901 7.91 219.281 8.45C220.681 8.99 221.891 9.75 222.911 10.73C223.951 11.71 224.761 12.86 225.341 14.18C225.921 15.48 226.211 16.92 226.211 18.5C226.211 20.06 225.921 21.51 225.341 22.85C224.761 24.17 223.951 25.32 222.911 26.3C221.891 27.26 220.681 28.01 219.281 28.55C217.901 29.09 216.391 29.36 214.751 29.36ZM214.721 25.22C215.661 25.22 216.521 25.06 217.301 24.74C218.101 24.42 218.801 23.96 219.401 23.36C220.001 22.76 220.461 22.05 220.781 21.23C221.121 20.41 221.291 19.5 221.291 18.5C221.291 17.5 221.121 16.59 220.781 15.77C220.461 14.95 220.001 14.24 219.401 13.64C218.821 13.04 218.131 12.58 217.331 12.26C216.531 11.94 215.661 11.78 214.721 11.78C213.781 11.78 212.911 11.94 212.111 12.26C211.331 12.58 210.641 13.04 210.041 13.64C209.441 14.24 208.971 14.95 208.631 15.77C208.311 16.59 208.151 17.5 208.151 18.5C208.151 19.48 208.311 20.39 208.631 21.23C208.971 22.05 209.431 22.76 210.011 23.36C210.611 23.96 211.311 24.42 212.111 24.74C212.911 25.06 213.781 25.22 214.721 25.22ZM229.863 29V8H239.403C241.683 8 243.693 8.44 245.433 9.32C247.173 10.18 248.533 11.39 249.513 12.95C250.493 14.51 250.983 16.36 250.983 18.5C250.983 20.62 250.493 22.47 249.513 24.05C248.533 25.61 247.173 26.83 245.433 27.71C243.693 28.57 241.683 29 239.403 29H229.863ZM234.723 25.01H239.163C240.563 25.01 241.773 24.75 242.793 24.23C243.833 23.69 244.633 22.93 245.193 21.95C245.773 20.97 246.063 19.82 246.063 18.5C246.063 17.16 245.773 16.01 245.193 15.05C244.633 14.07 243.833 13.32 242.793 12.8C241.773 12.26 240.563 11.99 239.163 11.99H234.723V25.01ZM251.595 29L260.955 8H265.755L275.145 29H270.045L262.365 10.46H264.285L256.575 29H251.595ZM256.275 24.5L257.565 20.81H268.365L269.685 24.5H256.275ZM277.324 29V8H281.344L293.734 23.12H291.784V8H296.584V29H292.594L280.174 13.88H282.124V29H277.324ZM306.023 16.46H316.133V20.24H306.023V16.46ZM306.383 25.1H317.812V29H301.553V8H317.423V11.9H306.383V25.1ZM327.686 29L318.626 8H323.876L331.796 26.6H328.706L336.746 8H341.576L332.486 29H327.686ZM339.867 29L349.227 8H354.027L363.417 29H358.317L350.637 10.46H352.557L344.847 29H339.867ZM344.547 24.5L345.837 20.81H356.637L357.957 24.5H344.547ZM363.342 16.7L365.322 9.5L365.982 12.23C365.122 12.23 364.412 11.98 363.852 11.48C363.312 10.96 363.042 10.26 363.042 9.38C363.042 8.52 363.322 7.83 363.882 7.31C364.442 6.77 365.132 6.5 365.952 6.5C366.792 6.5 367.482 6.77 368.022 7.31C368.562 7.83 368.832 8.52 368.832 9.38C368.832 9.64 368.812 9.9 368.772 10.16C368.752 10.4 368.682 10.69 368.562 11.03C368.462 11.37 368.292 11.82 368.052 12.38L366.312 16.7H363.342ZM379.527 29.36C377.847 29.36 376.237 29.14 374.697 28.7C373.157 28.24 371.917 27.65 370.977 26.93L372.627 23.27C373.527 23.91 374.587 24.44 375.807 24.86C377.047 25.26 378.297 25.46 379.557 25.46C380.517 25.46 381.287 25.37 381.867 25.19C382.467 24.99 382.907 24.72 383.187 24.38C383.467 24.04 383.607 23.65 383.607 23.21C383.607 22.65 383.387 22.21 382.947 21.89C382.507 21.55 381.927 21.28 381.207 21.08C380.487 20.86 379.687 20.66 378.807 20.48C377.947 20.28 377.077 20.04 376.197 19.76C375.337 19.48 374.547 19.12 373.827 18.68C373.107 18.24 372.517 17.66 372.057 16.94C371.617 16.22 371.397 15.3 371.397 14.18C371.397 12.98 371.717 11.89 372.357 10.91C373.017 9.91 373.997 9.12 375.297 8.54C376.617 7.94 378.267 7.64 380.247 7.64C381.567 7.64 382.867 7.8 384.147 8.12C385.427 8.42 386.557 8.88 387.537 9.5L386.037 13.19C385.057 12.63 384.077 12.22 383.097 11.96C382.117 11.68 381.157 11.54 380.217 11.54C379.277 11.54 378.507 11.65 377.907 11.87C377.307 12.09 376.877 12.38 376.617 12.74C376.357 13.08 376.227 13.48 376.227 13.94C376.227 14.48 376.447 14.92 376.887 15.26C377.327 15.58 377.907 15.84 378.627 16.04C379.347 16.24 380.137 16.44 380.997 16.64C381.877 16.84 382.747 17.07 383.607 17.33C384.487 17.59 385.287 17.94 386.007 18.38C386.727 18.82 387.307 19.4 387.747 20.12C388.207 20.84 388.437 21.75 388.437 22.85C388.437 24.03 388.107 25.11 387.447 26.09C386.787 27.07 385.797 27.86 384.477 28.46C383.177 29.06 381.527 29.36 379.527 29.36Z" fill="#F200AE"/>
<path d="M118.28 54V40H123.52C124.707 40 125.727 40.1933 126.58 40.58C127.433 40.9533 128.087 41.5 128.54 42.22C129.007 42.9267 129.24 43.7867 129.24 44.8C129.24 45.7867 129.007 46.64 128.54 47.36C128.087 48.0667 127.433 48.6133 126.58 49C125.727 49.3867 124.707 49.58 123.52 49.58H119.1L119.76 48.88V54H118.28ZM119.76 49L119.1 48.28H123.48C124.88 48.28 125.94 47.98 126.66 47.38C127.393 46.7667 127.76 45.9067 127.76 44.8C127.76 43.68 127.393 42.8133 126.66 42.2C125.94 41.5867 124.88 41.28 123.48 41.28H119.1L119.76 40.58V49ZM133.76 46.26H141.16V47.52H133.76V46.26ZM133.92 52.72H142.34V54H132.44V40H142.04V41.28H133.92V52.72ZM145.819 54V40H151.059C152.246 40 153.266 40.1933 154.119 40.58C154.972 40.9533 155.626 41.5 156.079 42.22C156.546 42.9267 156.779 43.7867 156.779 44.8C156.779 45.7867 156.546 46.64 156.079 47.36C155.626 48.0667 154.972 48.6133 154.119 49C153.266 49.3733 152.246 49.56 151.059 49.56H146.639L147.299 48.88V54H145.819ZM155.379 54L151.779 48.92H153.379L156.999 54H155.379ZM147.299 49L146.639 48.3H151.019C152.419 48.3 153.479 47.9933 154.199 47.38C154.932 46.7667 155.299 45.9067 155.299 44.8C155.299 43.68 154.932 42.8133 154.199 42.2C153.479 41.5867 152.419 41.28 151.019 41.28H146.639L147.299 40.58V49ZM164.132 54.12C163.092 54.12 162.092 53.9533 161.132 53.62C160.186 53.2733 159.452 52.8333 158.932 52.3L159.512 51.16C160.006 51.64 160.666 52.0467 161.492 52.38C162.332 52.7 163.212 52.86 164.132 52.86C165.012 52.86 165.726 52.7533 166.272 52.54C166.832 52.3133 167.239 52.0133 167.492 51.64C167.759 51.2667 167.892 50.8533 167.892 50.4C167.892 49.8533 167.732 49.4133 167.412 49.08C167.106 48.7467 166.699 48.4867 166.192 48.3C165.686 48.1 165.126 47.9267 164.512 47.78C163.899 47.6333 163.286 47.48 162.672 47.32C162.059 47.1467 161.492 46.92 160.972 46.64C160.466 46.36 160.052 45.9933 159.732 45.54C159.426 45.0733 159.272 44.4667 159.272 43.72C159.272 43.0267 159.452 42.3933 159.812 41.82C160.186 41.2333 160.752 40.7667 161.512 40.42C162.272 40.06 163.246 39.88 164.432 39.88C165.219 39.88 165.999 39.9933 166.772 40.22C167.546 40.4333 168.212 40.7333 168.772 41.12L168.272 42.3C167.672 41.9 167.032 41.6067 166.352 41.42C165.686 41.2333 165.039 41.14 164.412 41.14C163.572 41.14 162.879 41.2533 162.332 41.48C161.786 41.7067 161.379 42.0133 161.112 42.4C160.859 42.7733 160.732 43.2 160.732 43.68C160.732 44.2267 160.886 44.6667 161.192 45C161.512 45.3333 161.926 45.5933 162.432 45.78C162.952 45.9667 163.519 46.1333 164.132 46.28C164.746 46.4267 165.352 46.5867 165.952 46.76C166.566 46.9333 167.126 47.16 167.632 47.44C168.152 47.7067 168.566 48.0667 168.872 48.52C169.192 48.9733 169.352 49.5667 169.352 50.3C169.352 50.98 169.166 51.6133 168.792 52.2C168.419 52.7733 167.846 53.24 167.072 53.6C166.312 53.9467 165.332 54.12 164.132 54.12ZM178.697 54.12C177.644 54.12 176.664 53.9467 175.757 53.6C174.864 53.24 174.084 52.74 173.417 52.1C172.764 51.4467 172.25 50.6933 171.877 49.84C171.517 48.9733 171.337 48.0267 171.337 47C171.337 45.9733 171.517 45.0333 171.877 44.18C172.25 43.3133 172.764 42.56 173.417 41.92C174.084 41.2667 174.864 40.7667 175.757 40.42C176.65 40.06 177.63 39.88 178.697 39.88C179.75 39.88 180.724 40.06 181.617 40.42C182.51 40.7667 183.284 41.26 183.937 41.9C184.604 42.54 185.117 43.2933 185.477 44.16C185.85 45.0267 186.037 45.9733 186.037 47C186.037 48.0267 185.85 48.9733 185.477 49.84C185.117 50.7067 184.604 51.46 183.937 52.1C183.284 52.74 182.51 53.24 181.617 53.6C180.724 53.9467 179.75 54.12 178.697 54.12ZM178.697 52.8C179.537 52.8 180.31 52.66 181.017 52.38C181.737 52.0867 182.357 51.68 182.877 51.16C183.41 50.6267 183.824 50.0133 184.117 49.32C184.41 48.6133 184.557 47.84 184.557 47C184.557 46.16 184.41 45.3933 184.117 44.7C183.824 43.9933 183.41 43.38 182.877 42.86C182.357 42.3267 181.737 41.92 181.017 41.64C180.31 41.3467 179.537 41.2 178.697 41.2C177.857 41.2 177.077 41.3467 176.357 41.64C175.637 41.92 175.01 42.3267 174.477 42.86C173.957 43.38 173.544 43.9933 173.237 44.7C172.944 45.3933 172.797 46.16 172.797 47C172.797 47.8267 172.944 48.5933 173.237 49.3C173.544 50.0067 173.957 50.6267 174.477 51.16C175.01 51.68 175.637 52.0867 176.357 52.38C177.077 52.66 177.857 52.8 178.697 52.8ZM189.354 54V40H190.574L200.234 52.16H199.594V40H201.054V54H199.834L190.194 41.84H190.834V54H189.354ZM203.384 54L209.784 40H211.244L217.644 54H216.084L210.204 40.86H210.804L204.924 54H203.384ZM205.904 50.26L206.344 49.06H214.484L214.924 50.26H205.904ZM219.96 54V40H221.44V52.72H229.28V54H219.96ZM240.831 54.12C239.791 54.12 238.791 53.9533 237.831 53.62C236.885 53.2733 236.151 52.8333 235.631 52.3L236.211 51.16C236.705 51.64 237.365 52.0467 238.191 52.38C239.031 52.7 239.911 52.86 240.831 52.86C241.711 52.86 242.425 52.7533 242.971 52.54C243.531 52.3133 243.938 52.0133 244.191 51.64C244.458 51.2667 244.591 50.8533 244.591 50.4C244.591 49.8533 244.431 49.4133 244.111 49.08C243.805 48.7467 243.398 48.4867 242.891 48.3C242.385 48.1 241.825 47.9267 241.211 47.78C240.598 47.6333 239.985 47.48 239.371 47.32C238.758 47.1467 238.191 46.92 237.671 46.64C237.165 46.36 236.751 45.9933 236.431 45.54C236.125 45.0733 235.971 44.4667 235.971 43.72C235.971 43.0267 236.151 42.3933 236.511 41.82C236.885 41.2333 237.451 40.7667 238.211 40.42C238.971 40.06 239.945 39.88 241.131 39.88C241.918 39.88 242.698 39.9933 243.471 40.22C244.245 40.4333 244.911 40.7333 245.471 41.12L244.971 42.3C244.371 41.9 243.731 41.6067 243.051 41.42C242.385 41.2333 241.738 41.14 241.111 41.14C240.271 41.14 239.578 41.2533 239.031 41.48C238.485 41.7067 238.078 42.0133 237.811 42.4C237.558 42.7733 237.431 43.2 237.431 43.68C237.431 44.2267 237.585 44.6667 237.891 45C238.211 45.3333 238.625 45.5933 239.131 45.78C239.651 45.9667 240.218 46.1333 240.831 46.28C241.445 46.4267 242.051 46.5867 242.651 46.76C243.265 46.9333 243.825 47.16 244.331 47.44C244.851 47.7067 245.265 48.0667 245.571 48.52C245.891 48.9733 246.051 49.5667 246.051 50.3C246.051 50.98 245.865 51.6133 245.491 52.2C245.118 52.7733 244.545 53.24 243.771 53.6C243.011 53.9467 242.031 54.12 240.831 54.12ZM249.276 54V40H250.756V54H249.276ZM258.031 54V41.28H253.111V40H264.431V41.28H259.511V54H258.031ZM268.116 46.26H275.516V47.52H268.116V46.26ZM268.276 52.72H276.696V54H266.796V40H276.396V41.28H268.276V52.72Z" fill="black"/>
</svg>
